<svg width="212" height="212" viewBox="0 0 212 212" fill="none" xmlns="http://www.w3.org/2000/svg">
<rect width="212" height="212" rx="70" fill="white"/>
<path d="M44 51H141.358L164 61H66.6415L44 51Z" fill="black"/>
<path d="M44 152H141.358L164 162H66.6415L44 152Z" fill="black"/>
<path d="M35.7107 122.765C32.4967 122.765 29.7176 122.034 27.3733 120.571C25.0289 119.108 23.214 117.183 21.9284 114.796C20.6428 112.409 20 109.83 20 107.058C20 104.248 20.6239 101.649 21.8717 99.2622C23.1573 96.8754 24.9722 94.9697 27.3165 93.5453C29.6609 92.1209 32.44 91.4087 35.654 91.4087C38.9058 91.4087 41.6661 92.1209 43.9348 93.5453C46.2413 94.9697 47.9617 96.8369 49.096 99.1467L41.6661 101.457C40.3426 99.1467 38.3197 97.9918 35.5973 97.9918C34.1226 97.9918 32.7992 98.3768 31.6271 99.1467C30.4549 99.8782 29.5285 100.937 28.8479 102.323C28.1673 103.67 27.827 105.249 27.827 107.058C27.827 108.829 28.1673 110.407 28.8479 111.793C29.5663 113.141 30.5116 114.219 31.6838 115.027C32.8559 115.797 34.1604 116.182 35.5973 116.182C36.9585 116.182 38.2063 115.855 39.3406 115.2C40.5128 114.507 41.3257 113.641 41.7795 112.602L49.2095 114.912C48.1886 117.183 46.487 119.069 44.1049 120.571C41.7606 122.034 38.9625 122.765 35.7107 122.765Z" fill="black"/>
<path d="M67.3347 122.765C64.0829 122.765 61.2848 122.053 58.9405 120.628C56.634 119.166 54.8568 117.241 53.6091 114.854C52.3613 112.467 51.7374 109.888 51.7374 107.116C51.7374 104.305 52.3613 101.707 53.6091 99.32C54.8947 96.9331 56.6907 95.0275 58.9972 93.6031C61.3415 92.1401 64.1207 91.4087 67.3347 91.4087C70.5487 91.4087 73.3089 92.1401 75.6154 93.6031C77.9597 95.0275 79.7558 96.9331 81.0036 99.32C82.2514 101.707 82.8752 104.305 82.8752 107.116C82.8752 109.888 82.2514 112.467 81.0036 114.854C79.7558 117.241 77.9597 119.166 75.6154 120.628C73.3089 122.053 70.5487 122.765 67.3347 122.765ZM59.5644 107.116C59.5644 108.887 59.9047 110.465 60.5853 111.851C61.2659 113.198 62.1923 114.257 63.3645 115.027C64.5366 115.797 65.86 116.182 67.3347 116.182C68.7715 116.182 70.076 115.797 71.2482 115.027C72.4203 114.219 73.3467 113.141 74.0273 111.793C74.7457 110.407 75.105 108.829 75.105 107.058C75.105 105.326 74.7457 103.786 74.0273 102.438C73.3467 101.052 72.4203 99.9744 71.2482 99.2045C70.076 98.396 68.7715 97.9918 67.3347 97.9918C65.86 97.9918 64.5366 98.396 63.3645 99.2045C62.1923 99.9744 61.2659 101.052 60.5853 102.438C59.9047 103.786 59.5644 105.345 59.5644 107.116Z" fill="black"/>
<path d="M96.0709 100.668V127H88.2439V86H94.4828L115.298 113.025V86.0577H123.125V127H116.603L96.0709 100.668Z" fill="black"/>
<path d="M143.992 122.765C140.74 122.765 137.942 122.053 135.598 120.628C133.291 119.166 131.514 117.241 130.266 114.854C129.018 112.467 128.395 109.888 128.395 107.116C128.395 104.305 129.018 101.707 130.266 99.32C131.552 96.9331 133.348 95.0275 135.654 93.6031C137.999 92.1401 140.778 91.4087 143.992 91.4087C147.206 91.4087 149.966 92.1401 152.273 93.6031C154.617 95.0275 156.413 96.9331 157.661 99.32C158.908 101.707 159.532 104.305 159.532 107.116C159.532 109.888 158.908 112.467 157.661 114.854C156.413 117.241 154.617 119.166 152.273 120.628C149.966 122.053 147.206 122.765 143.992 122.765ZM136.222 107.116C136.222 108.887 136.562 110.465 137.242 111.851C137.923 113.198 138.849 114.257 140.022 115.027C141.194 115.797 142.517 116.182 143.992 116.182C145.429 116.182 146.733 115.797 147.905 115.027C149.077 114.219 150.004 113.141 150.684 111.793C151.403 110.407 151.762 108.829 151.762 107.058C151.762 105.326 151.403 103.786 150.684 102.438C150.004 101.052 149.077 99.9744 147.905 99.2045C146.733 98.396 145.429 97.9918 143.992 97.9918C142.517 97.9918 141.194 98.396 140.022 99.2045C138.849 99.9744 137.923 101.052 137.242 102.438C136.562 103.786 136.222 105.345 136.222 107.116Z" fill="black"/>
<path d="M176.289 122.765C179.503 122.765 182.282 122.034 184.627 120.571C186.971 119.108 188.786 117.183 190.072 114.796C191.357 112.409 192 109.83 192 107.058C192 104.248 191.376 101.649 190.128 99.2622C188.843 96.8754 187.028 94.9697 184.683 93.5453C182.339 92.1209 179.56 91.4087 176.346 91.4087C173.094 91.4087 170.334 92.1209 168.065 93.5453C165.759 94.9697 164.038 96.8369 162.904 99.1467L170.334 101.457C171.657 99.1467 173.68 97.9918 176.403 97.9918C177.877 97.9918 179.201 98.3768 180.373 99.1467C181.545 99.8782 182.471 100.937 183.152 102.323C183.833 103.67 184.173 105.249 184.173 107.058C184.173 108.829 183.833 110.407 183.152 111.793C182.434 113.141 181.488 114.219 180.316 115.027C179.144 115.797 177.84 116.182 176.403 116.182C175.041 116.182 173.794 115.855 172.659 115.2C171.487 114.507 170.674 113.641 170.221 112.602L162.791 114.912C163.811 117.183 165.513 119.069 167.895 120.571C170.239 122.034 173.037 122.765 176.289 122.765Z" fill="black"/>
</svg>
